<?xml version="1.0" encoding="UTF-8" standalone="no"?>
<!-- Created with Inkscape (http://www.inkscape.org/) -->
<svg
   xmlns:dc="http://purl.org/dc/elements/1.1/"
   xmlns:cc="http://creativecommons.org/ns#"
   xmlns:rdf="http://www.w3.org/1999/02/22-rdf-syntax-ns#"
   xmlns:svg="http://www.w3.org/2000/svg"
   xmlns="http://www.w3.org/2000/svg"
   xmlns:sodipodi="http://sodipodi.sourceforge.net/DTD/sodipodi-0.dtd"
   xmlns:inkscape="http://www.inkscape.org/namespaces/inkscape"
   width="744.09448819"
   height="1052.3622047"
   id="svg2"
   sodipodi:version="0.32"
   inkscape:version="0.46"
   sodipodi:docname="Group.svg"
   inkscape:output_extension="org.inkscape.output.svg.inkscape">
  <defs
     id="defs4">
    <inkscape:perspective
       sodipodi:type="inkscape:persp3d"
       inkscape:vp_x="0 : 526.18109 : 1"
       inkscape:vp_y="0 : 1000 : 0"
       inkscape:vp_z="744.09448 : 526.18109 : 1"
       inkscape:persp3d-origin="372.04724 : 350.78739 : 1"
       id="perspective10" />
    <inkscape:perspective
       id="perspective2390"
       inkscape:persp3d-origin="372.04724 : 350.78739 : 1"
       inkscape:vp_z="744.09448 : 526.18109 : 1"
       inkscape:vp_y="0 : 1000 : 0"
       inkscape:vp_x="0 : 526.18109 : 1"
       sodipodi:type="inkscape:persp3d" />
    <inkscape:perspective
       sodipodi:type="inkscape:persp3d"
       inkscape:vp_x="0 : 526.18109 : 1"
       inkscape:vp_y="0 : 1000 : 0"
       inkscape:vp_z="744.09448 : 526.18109 : 1"
       inkscape:persp3d-origin="372.04724 : 350.78739 : 1"
       id="perspective3226" />
    <inkscape:perspective
       id="perspective3224"
       inkscape:persp3d-origin="372.04724 : 350.78739 : 1"
       inkscape:vp_z="744.09448 : 526.18109 : 1"
       inkscape:vp_y="0 : 1000 : 0"
       inkscape:vp_x="0 : 526.18109 : 1"
       sodipodi:type="inkscape:persp3d" />
    <inkscape:perspective
       sodipodi:type="inkscape:persp3d"
       inkscape:vp_x="0 : 526.18109 : 1"
       inkscape:vp_y="0 : 1000 : 0"
       inkscape:vp_z="744.09448 : 526.18109 : 1"
       inkscape:persp3d-origin="372.04724 : 350.78739 : 1"
       id="perspective3303" />
    <inkscape:perspective
       id="perspective3301"
       inkscape:persp3d-origin="372.04724 : 350.78739 : 1"
       inkscape:vp_z="744.09448 : 526.18109 : 1"
       inkscape:vp_y="0 : 1000 : 0"
       inkscape:vp_x="0 : 526.18109 : 1"
       sodipodi:type="inkscape:persp3d" />
    <inkscape:perspective
       sodipodi:type="inkscape:persp3d"
       inkscape:vp_x="0 : 526.18109 : 1"
       inkscape:vp_y="0 : 1000 : 0"
       inkscape:vp_z="744.09448 : 526.18109 : 1"
       inkscape:persp3d-origin="372.04724 : 350.78739 : 1"
       id="perspective3426" />
    <inkscape:perspective
       id="perspective3424"
       inkscape:persp3d-origin="372.04724 : 350.78739 : 1"
       inkscape:vp_z="744.09448 : 526.18109 : 1"
       inkscape:vp_y="0 : 1000 : 0"
       inkscape:vp_x="0 : 526.18109 : 1"
       sodipodi:type="inkscape:persp3d" />
  </defs>
  <sodipodi:namedview
     id="base"
     pagecolor="#000000"
     bordercolor="#666666"
     borderopacity="1.0"
     gridtolerance="10000"
     guidetolerance="10"
     objecttolerance="10"
     inkscape:pageopacity="1"
     inkscape:pageshadow="2"
     inkscape:zoom="0.49497475"
     inkscape:cx="239.64042"
     inkscape:cy="423.99747"
     inkscape:document-units="px"
     inkscape:current-layer="layer1"
     showgrid="true"
     inkscape:window-width="1440"
     inkscape:window-height="855"
     inkscape:window-x="-3"
     inkscape:window-y="25" />
  <metadata
     id="metadata7">
    <rdf:RDF>
      <cc:Work
         rdf:about="">
        <dc:format>image/svg+xml</dc:format>
        <dc:type
           rdf:resource="http://purl.org/dc/dcmitype/StillImage" />
        <dc:title>Pucman Awesome Group</dc:title>
        <dc:date>11.04.2008</dc:date>
        <dc:creator>
          <cc:Agent>
            <dc:title>roBernd</dc:title>
          </cc:Agent>
        </dc:creator>
        <dc:rights>
          <cc:Agent>
            <dc:title>roBernd</dc:title>
          </cc:Agent>
        </dc:rights>
        <dc:publisher>
          <cc:Agent>
            <dc:title>roBernd</dc:title>
          </cc:Agent>
        </dc:publisher>
        <dc:contributor>
          <cc:Agent>
            <dc:title />
          </cc:Agent>
        </dc:contributor>
      </cc:Work>
    </rdf:RDF>
  </metadata>
  <g
     inkscape:groupmode="layer"
     id="layer2"
     inkscape:label="2">
    <path
       style="fill:#5f96f2;fill-opacity:1;fill-rule:evenodd;stroke:#000000;stroke-width:3.71259689;stroke-linecap:round;stroke-linejoin:round;stroke-miterlimit:4;stroke-dasharray:none;stroke-opacity:1;display:inline"
       d="M 364.93589,516.3078 C 365.31711,446.57705 469.72496,437.9691 475.68171,516.5826 L 475.68171,586.65751 C 474.88432,607.16708 441.27673,602.61154 439.40476,588.69106 C 436.94329,604.77953 406.25659,605.04325 403.6878,587.14053 C 397.78705,607.35095 365.01105,602.68283 364.93589,585.83307 L 364.93589,516.3078 z"
       id="path3189"
       sodipodi:nodetypes="ccccccc" />
    <g
       id="g3305"
       transform="matrix(0.1923625,0,0,0.1923625,188.21566,419.46171)">
      <g
         inkscape:label="2"
         id="g3307"
         style="fill:#e256b1;fill-opacity:1">
        <path
           sodipodi:nodetypes="ccccccc"
           id="path3309"
           d="M 96.428572,513.15605 C 98.410606,150.65956 641.17673,105.91097 672.14285,514.58462 L 672.14285,878.87029 C 667.9976,985.48959 493.28776,961.80739 483.55643,889.44169 C 470.7604,973.07809 311.23524,974.44879 297.88117,881.38119 C 267.20605,986.44539 96.819327,962.17819 96.428572,874.58459 L 96.428572,513.15605 z"
           style="fill:#e256b1;fill-opacity:1;fill-rule:evenodd;stroke:#000000;stroke-width:19.29999924;stroke-linecap:round;stroke-linejoin:round;stroke-miterlimit:4;stroke-dasharray:none;stroke-opacity:1;display:inline" />
      </g>
      <g
         style="display:inline"
         id="g3311"
         inkscape:label="Layer 1">
        <path
           sodipodi:nodetypes="cccc"
           id="path3313"
           d="M 588.64005,765.76412 L 201.51219,762.35616 C 128.49205,564.50681 518.07482,441.63561 562.96448,761.25221 L 588.64005,765.76412 z"
           style="fill:#872149;fill-opacity:1;fill-rule:evenodd;stroke:#000000;stroke-width:17;stroke-linecap:butt;stroke-linejoin:miter;stroke-miterlimit:4;stroke-dasharray:none;stroke-opacity:1" />
        <path
           sodipodi:nodetypes="ccc"
           id="path3315"
           d="M 148.57143,483.79075 C 119.84638,318.87565 305.0302,312.74518 284.28572,485.21932 L 148.57143,483.79075 z"
           style="fill:#ffffff;fill-opacity:1;fill-rule:evenodd;stroke:#000000;stroke-width:17;stroke-linecap:butt;stroke-linejoin:miter;stroke-miterlimit:4;stroke-dasharray:none;stroke-opacity:1" />
        <path
           sodipodi:nodetypes="ccc"
           id="path3317"
           d="M 398.57143,483.79075 C 351.00346,330.38255 581.41033,306.49167 552.85715,483.79075 L 398.57143,483.79075 z"
           style="fill:#ffffff;fill-opacity:1;fill-rule:evenodd;stroke:#000000;stroke-width:17;stroke-linecap:butt;stroke-linejoin:miter;stroke-miterlimit:4;stroke-dasharray:none;stroke-opacity:1" />
        <path
           transform="matrix(0.9270878,0,0,0.8437545,22.097119,57.33155)"
           d="M 270.00001,408.07648 A 25.714285,25.714285 0 1 1 218.57144,408.07648 A 25.714285,25.714285 0 1 1 270.00001,408.07648 z"
           sodipodi:ry="25.714285"
           sodipodi:rx="25.714285"
           sodipodi:cy="408.07648"
           sodipodi:cx="244.28572"
           id="path3319"
           style="opacity:1;fill:#000000;fill-opacity:1;fill-rule:evenodd;stroke:#000000;stroke-width:17;stroke-linecap:round;stroke-linejoin:round;stroke-miterlimit:4;stroke-dasharray:none;stroke-opacity:1"
           sodipodi:type="arc" />
        <path
           transform="matrix(0.9270878,0,0,0.8437545,290.66854,58.045818)"
           d="M 270.00001,408.07648 A 25.714285,25.714285 0 1 1 218.57144,408.07648 A 25.714285,25.714285 0 1 1 270.00001,408.07648 z"
           sodipodi:ry="25.714285"
           sodipodi:rx="25.714285"
           sodipodi:cy="408.07648"
           sodipodi:cx="244.28572"
           id="path3321"
           style="opacity:1;fill:#000000;fill-opacity:1;fill-rule:evenodd;stroke:#000000;stroke-width:17;stroke-linecap:round;stroke-linejoin:round;stroke-miterlimit:4;stroke-dasharray:none;stroke-opacity:1"
           sodipodi:type="arc" />
        <path
           sodipodi:nodetypes="ccc"
           id="path3323"
           d="M 365.71428,752.36218 C 391.57972,635.02594 551.14736,638.71281 551.42857,750.93361 L 365.71428,752.36218 z"
           style="fill:#f8c0dd;fill-opacity:1;fill-rule:evenodd;stroke:#f8c0dd;stroke-width:3.4000001;stroke-linecap:butt;stroke-linejoin:miter;stroke-miterlimit:4;stroke-dasharray:none;stroke-opacity:1" />
      </g>
    </g>
    <g
       id="g3428"
       transform="matrix(0.1923625,0,0,0.1923625,22.942762,416.77139)">
      <g
         inkscape:label="2"
         id="g3430">
        <path
           sodipodi:nodetypes="ccccccc"
           id="path3432"
           d="M 96.428572,513.15605 C 98.410606,150.65956 641.17673,105.91097 672.14285,514.58462 L 672.14285,878.87029 C 667.9976,985.48959 493.28776,961.80739 483.55643,889.44169 C 470.7604,973.07809 311.23524,974.44879 297.88117,881.38119 C 267.20605,986.44539 96.819327,962.17819 96.428572,874.58459 L 96.428572,513.15605 z"
           style="fill:#f7343d;fill-opacity:1;fill-rule:evenodd;stroke:#000000;stroke-width:19.29999924;stroke-linecap:round;stroke-linejoin:round;stroke-miterlimit:4;stroke-dasharray:none;stroke-opacity:1;display:inline" />
      </g>
      <g
         style="display:inline"
         id="g3434"
         inkscape:label="Layer 1">
        <path
           sodipodi:nodetypes="cccc"
           id="path3436"
           d="M 588.64005,765.76412 L 201.51219,762.35616 C 128.49205,564.50681 518.07482,441.63561 562.96448,761.25221 L 588.64005,765.76412 z"
           style="fill:#872149;fill-opacity:1;fill-rule:evenodd;stroke:#000000;stroke-width:17;stroke-linecap:butt;stroke-linejoin:miter;stroke-miterlimit:4;stroke-dasharray:none;stroke-opacity:1" />
        <path
           sodipodi:nodetypes="ccc"
           id="path3438"
           d="M 148.57143,483.79075 C 119.84638,318.87565 305.0302,312.74518 284.28572,485.21932 L 148.57143,483.79075 z"
           style="fill:#ffffff;fill-opacity:1;fill-rule:evenodd;stroke:#000000;stroke-width:17;stroke-linecap:butt;stroke-linejoin:miter;stroke-miterlimit:4;stroke-dasharray:none;stroke-opacity:1" />
        <path
           sodipodi:nodetypes="ccc"
           id="path3440"
           d="M 398.57143,483.79075 C 351.00346,330.38255 581.41033,306.49167 552.85715,483.79075 L 398.57143,483.79075 z"
           style="fill:#ffffff;fill-opacity:1;fill-rule:evenodd;stroke:#000000;stroke-width:17;stroke-linecap:butt;stroke-linejoin:miter;stroke-miterlimit:4;stroke-dasharray:none;stroke-opacity:1" />
        <path
           transform="matrix(0.9270878,0,0,0.8437545,22.097119,57.33155)"
           d="M 270.00001,408.07648 A 25.714285,25.714285 0 1 1 218.57144,408.07648 A 25.714285,25.714285 0 1 1 270.00001,408.07648 z"
           sodipodi:ry="25.714285"
           sodipodi:rx="25.714285"
           sodipodi:cy="408.07648"
           sodipodi:cx="244.28572"
           id="path3442"
           style="opacity:1;fill:#000000;fill-opacity:1;fill-rule:evenodd;stroke:#000000;stroke-width:17;stroke-linecap:round;stroke-linejoin:round;stroke-miterlimit:4;stroke-dasharray:none;stroke-opacity:1"
           sodipodi:type="arc" />
        <path
           transform="matrix(0.9270878,0,0,0.8437545,290.66854,58.045818)"
           d="M 270.00001,408.07648 A 25.714285,25.714285 0 1 1 218.57144,408.07648 A 25.714285,25.714285 0 1 1 270.00001,408.07648 z"
           sodipodi:ry="25.714285"
           sodipodi:rx="25.714285"
           sodipodi:cy="408.07648"
           sodipodi:cx="244.28572"
           id="path3444"
           style="opacity:1;fill:#000000;fill-opacity:1;fill-rule:evenodd;stroke:#000000;stroke-width:17;stroke-linecap:round;stroke-linejoin:round;stroke-miterlimit:4;stroke-dasharray:none;stroke-opacity:1"
           sodipodi:type="arc" />
        <path
           sodipodi:nodetypes="ccc"
           id="path3446"
           d="M 365.71428,752.36218 C 391.57972,635.02594 551.14736,638.71281 551.42857,750.93361 L 365.71428,752.36218 z"
           style="fill:#f8c0dd;fill-opacity:1;fill-rule:evenodd;stroke:#f8c0dd;stroke-width:3.4000001;stroke-linecap:butt;stroke-linejoin:miter;stroke-miterlimit:4;stroke-dasharray:none;stroke-opacity:1" />
      </g>
    </g>
  </g>
  <g
     inkscape:label="Layer 1"
     inkscape:groupmode="layer"
     id="layer1"
     style="display:inline">
    <path
       style="fill:#872149;fill-opacity:1;fill-rule:evenodd;stroke:#000000;stroke-width:3.27016306;stroke-linecap:butt;stroke-linejoin:miter;stroke-miterlimit:4;stroke-dasharray:none;stroke-opacity:1"
       d="M 459.61889,564.90009 L 385.15002,564.24455 C 371.10364,526.18576 446.04476,502.54994 454.6799,564.03223 L 459.61889,564.90009 z"
       id="path3170"
       sodipodi:nodetypes="cccc" />
    <path
       style="fill:#ffffff;fill-opacity:1;fill-rule:evenodd;stroke:#000000;stroke-width:3.27016306;stroke-linecap:butt;stroke-linejoin:miter;stroke-miterlimit:4;stroke-dasharray:none;stroke-opacity:1"
       d="M 374.96615,510.65901 C 369.44054,478.93552 405.06302,477.75625 401.07256,510.93382 L 374.96615,510.65901 z"
       id="path3172"
       sodipodi:nodetypes="ccc" />
    <path
       style="fill:#ffffff;fill-opacity:1;fill-rule:evenodd;stroke:#000000;stroke-width:3.27016306;stroke-linecap:butt;stroke-linejoin:miter;stroke-miterlimit:4;stroke-dasharray:none;stroke-opacity:1"
       d="M 423.05685,510.65901 C 413.90653,481.14902 458.22821,476.55331 452.73565,510.65901 L 423.05685,510.65901 z"
       id="path3174"
       sodipodi:nodetypes="ccc" />
    <path
       sodipodi:type="arc"
       style="opacity:1;fill:#000000;fill-opacity:1;fill-rule:evenodd;stroke:#000000;stroke-width:17;stroke-linecap:round;stroke-linejoin:round;stroke-miterlimit:4;stroke-dasharray:none;stroke-opacity:1"
       id="path3178"
       sodipodi:cx="244.28572"
       sodipodi:cy="408.07648"
       sodipodi:rx="25.714285"
       sodipodi:ry="25.714285"
       d="M 270.00001,408.07648 A 25.714285,25.714285 0 1 1 218.57144,408.07648 A 25.714285,25.714285 0 1 1 270.00001,408.07648 z"
       transform="matrix(0.178337,0,0,0.1623068,350.63724,428.62424)" />
    <path
       sodipodi:type="arc"
       style="opacity:1;fill:#000000;fill-opacity:1;fill-rule:evenodd;stroke:#000000;stroke-width:17;stroke-linecap:round;stroke-linejoin:round;stroke-miterlimit:4;stroke-dasharray:none;stroke-opacity:1"
       id="path3180"
       sodipodi:cx="244.28572"
       sodipodi:cy="408.07648"
       sodipodi:rx="25.714285"
       sodipodi:ry="25.714285"
       d="M 270.00001,408.07648 A 25.714285,25.714285 0 1 1 218.57144,408.07648 A 25.714285,25.714285 0 1 1 270.00001,408.07648 z"
       transform="matrix(0.178337,0,0,0.1623068,402.30033,428.76164)" />
    <path
       style="fill:#f8c0dd;fill-opacity:1;fill-rule:evenodd;stroke:#f8c0dd;stroke-width:0.65403265;stroke-linecap:butt;stroke-linejoin:miter;stroke-miterlimit:4;stroke-dasharray:none;stroke-opacity:1"
       d="M 416.73632,562.32209 C 421.71189,539.751 452.40673,540.46021 452.46084,562.04728 L 416.73632,562.32209 z"
       id="path3184"
       sodipodi:nodetypes="ccc" />
    <g
       id="g3228"
       inkscape:label="Layer 1"
       transform="matrix(0.3005515,8.7883552e-2,-8.7883552e-2,0.3005515,544.04421,344.92851)"
       inkscape:export-filename="/home/halcyon/Desktop/src/DS/pucmcawesome/gfx/pucmcawesome.png"
       inkscape:export-xdpi="15.69"
       inkscape:export-ydpi="15.69">
      <path
         sodipodi:nodetypes="csscccscc"
         id="path2398"
         d="M 668.82588,487.80147 C 682.81739,646.04851 566.05919,785.80817 408.20482,799.76497 C 329.63066,806.71215 255.61178,781.18625 199.35594,734.27721 C 196.24212,731.68075 187.48605,724.80602 187.07601,716.57143 L 391.76564,531.56794 L 96.408684,530.62193 C 96.050883,523.48866 95.934774,516.45061 96.052952,509.51069 C 98.608392,359.4441 210.7127,255.26013 357.51093,226.40605 C 515.3653,212.44926 654.83437,329.5544 668.82588,487.80147 z"
         style="fill:#fde579;fill-opacity:1;fill-rule:evenodd;stroke:#000000;stroke-width:19.3524971;stroke-linecap:round;stroke-linejoin:round;stroke-miterlimit:4;stroke-opacity:1" />
      <path
         sodipodi:nodetypes="ccc"
         id="path3231"
         d="M 148.57143,483.79075 C 119.84638,318.87565 305.0302,312.74518 284.28572,485.21932 L 148.57143,483.79075 z"
         style="fill:#ffffff;fill-opacity:1;fill-rule:evenodd;stroke:#000000;stroke-width:17;stroke-linecap:butt;stroke-linejoin:miter;stroke-miterlimit:4;stroke-dasharray:none;stroke-opacity:1" />
      <path
         sodipodi:nodetypes="ccc"
         id="path3233"
         d="M 398.57143,483.79075 C 351.00346,330.38255 581.41033,306.49167 552.85715,483.79075 L 398.57143,483.79075 z"
         style="fill:#ffffff;fill-opacity:1;fill-rule:evenodd;stroke:#000000;stroke-width:17;stroke-linecap:butt;stroke-linejoin:miter;stroke-miterlimit:4;stroke-dasharray:none;stroke-opacity:1" />
      <path
         transform="matrix(0.9270878,0,0,0.8437545,22.097119,57.33155)"
         d="M 270.00001,408.07648 A 25.714285,25.714285 0 1 1 218.57144,408.07648 A 25.714285,25.714285 0 1 1 270.00001,408.07648 z"
         sodipodi:ry="25.714285"
         sodipodi:rx="25.714285"
         sodipodi:cy="408.07648"
         sodipodi:cx="244.28572"
         id="path3235"
         style="opacity:1;fill:#000000;fill-opacity:1;fill-rule:evenodd;stroke:#000000;stroke-width:17;stroke-linecap:round;stroke-linejoin:round;stroke-miterlimit:4;stroke-dasharray:none;stroke-opacity:1"
         sodipodi:type="arc" />
      <path
         transform="matrix(0.9270878,0,0,0.8437545,290.66854,58.045818)"
         d="M 270.00001,408.07648 A 25.714285,25.714285 0 1 1 218.57144,408.07648 A 25.714285,25.714285 0 1 1 270.00001,408.07648 z"
         sodipodi:ry="25.714285"
         sodipodi:rx="25.714285"
         sodipodi:cy="408.07648"
         sodipodi:cx="244.28572"
         id="path3237"
         style="opacity:1;fill:#000000;fill-opacity:1;fill-rule:evenodd;stroke:#000000;stroke-width:17;stroke-linecap:round;stroke-linejoin:round;stroke-miterlimit:4;stroke-dasharray:none;stroke-opacity:1"
         sodipodi:type="arc" />
    </g>
  </g>
</svg>
